<svg width="21" height="15" viewBox="0 0 21 15" fill="none" xmlns="http://www.w3.org/2000/svg">
<rect x="1" y="1" width="19" height="13" rx="0.627907" stroke="#27D381" stroke-width="1.25581"/>
<path d="M9.10885 10.4926L9.10952 10.493C9.38321 10.6629 9.71461 10.7703 10.1021 10.8169V11.4156C10.1021 11.4882 10.125 11.5523 10.1716 11.605C10.2184 11.658 10.2778 11.6863 10.3473 11.6863H10.8432C10.9126 11.6863 10.972 11.658 11.0189 11.605C11.0655 11.5523 11.0883 11.4882 11.0883 11.4156V10.8251C11.4549 10.7732 11.7774 10.6692 12.0548 10.5124L12.0548 10.5124L12.0555 10.512C12.3442 10.3425 12.5675 10.122 12.7239 9.8505C12.886 9.57224 12.9664 9.25083 12.9664 8.88787C12.9664 8.52041 12.8948 8.21371 12.7481 7.97097C12.607 7.72239 12.3852 7.52036 12.0861 7.36376C11.7943 7.20816 11.4165 7.07224 10.954 6.9553C10.6249 6.85767 10.3617 6.76651 10.1639 6.68189C9.97318 6.598 9.84066 6.50435 9.76096 6.40324C9.68203 6.29701 9.64117 6.16418 9.64117 6.00161C9.64117 5.75672 9.7228 5.5839 9.8799 5.47274C10.048 5.35771 10.2728 5.29787 10.5586 5.29787C10.8381 5.29787 11.0597 5.36338 11.2277 5.49002C11.3979 5.61831 11.4924 5.76963 11.5173 5.94432L11.5158 5.94453L11.5204 5.95591C11.5498 6.02917 11.591 6.08652 11.6479 6.11867C11.6986 6.14733 11.7531 6.16191 11.8107 6.16191H12.5668C12.6333 6.16191 12.6902 6.13862 12.7286 6.08696C12.767 6.03628 12.7875 5.97989 12.7875 5.91888L12.7875 5.91765C12.7818 5.68747 12.7112 5.45293 12.578 5.21452C12.444 4.96838 12.2491 4.7517 11.9948 4.56419C11.7476 4.38189 11.4449 4.25919 11.0883 4.19469V3.58413C11.0883 3.51158 11.0655 3.44745 11.0189 3.39474C10.972 3.34181 10.9126 3.31353 10.8432 3.31353H10.3473C10.2778 3.31353 10.2184 3.34181 10.1716 3.39474C10.125 3.44745 10.1021 3.51158 10.1021 3.58413V4.17507C9.57687 4.25467 9.15977 4.45912 8.85514 4.79124C8.54269 5.13188 8.3867 5.54551 8.3867 6.02918C8.3867 6.40268 8.45549 6.71521 8.59645 6.96384L8.59645 6.96385L8.59688 6.96458C8.74281 7.21206 8.95823 7.41699 9.241 7.57998L9.24173 7.58039C9.52251 7.736 9.86519 7.86907 10.269 7.98012C10.6201 8.07785 10.9024 8.17216 11.1164 8.26289L11.1164 8.26291L11.1175 8.26335C11.3308 8.34776 11.4798 8.44217 11.57 8.54413L11.5699 8.54418L11.5719 8.54615C11.6637 8.63904 11.7119 8.76629 11.7119 8.93383C11.7119 9.17046 11.6236 9.35469 11.4467 9.49179C11.2698 9.62897 10.993 9.70191 10.6074 9.70191C10.3682 9.70191 10.1725 9.66579 10.0183 9.59605C9.86146 9.52513 9.74105 9.43769 9.65482 9.33485C9.5712 9.22238 9.51197 9.11111 9.47611 9.00106L9.47635 9.00098L9.4743 8.99633C9.45004 8.94148 9.41616 8.89548 9.37227 8.85956C9.32315 8.81288 9.25869 8.79191 9.18467 8.79191H8.46109C8.39818 8.79191 8.34263 8.81617 8.29621 8.86115L8.29611 8.86105L8.29355 8.86393C8.25194 8.91098 8.23223 8.9692 8.23219 9.03494L8.23227 9.03695C8.24345 9.31498 8.32175 9.58306 8.46626 9.84071L8.46652 9.84117C8.61203 10.0943 8.82679 10.3112 9.10885 10.4926Z" fill="#27D381" stroke="#27D381" stroke-width="0.1"/>
</svg>
