<svg width="56" height="12" viewBox="0 0 56 12" fill="none" xmlns="http://www.w3.org/2000/svg">
<g opacity="0.8">
<path fill-rule="evenodd" clip-rule="evenodd" d="M9.86025 1L9.51738 2.61048H5.65871L5.37284 3.96258H8.8027L8.43119 5.57335H5.00161L4.63009 7.29957H8.68841L8.3169 8.99656H1L1.80032 5.42955L2.74358 1H9.86025ZM17.9772 5.57327H15.4906L20.4922 11.6133H17.1482L15.0048 8.99619C14.1856 9.16083 13.3766 9.21552 12.5433 9.22738C11.7251 9.23866 10.3177 9.04886 9.68868 8.47798C8.98401 7.83982 9.19084 6.64725 9.35036 5.72752L9.35037 5.72745C9.38236 5.54297 9.41245 5.36947 9.4329 5.21362C9.53186 4.44918 9.78387 3.47149 10.2318 2.84043C11.1001 1.61709 12.7404 1.43828 14.1188 1.48862C14.2376 1.49296 14.3611 1.49641 14.4881 1.49996C15.4354 1.52642 16.5739 1.55821 17.3771 2.00626C18.0128 2.36244 18.3027 2.90669 18.2631 3.64596C18.2362 4.13832 18.131 4.71824 18.0442 5.19632L18.0442 5.19635L18.0442 5.19638L18.0442 5.19642L18.0442 5.19645L18.0442 5.19648C18.0196 5.33165 17.9966 5.45867 17.9772 5.57327ZM13.0324 7.90336C14.473 7.91465 14.8454 6.87128 15.1188 5.63116C15.1397 5.53674 15.1631 5.43762 15.1872 5.33537C15.4268 4.32085 15.7392 2.99796 14.3758 2.8986C12.8932 2.79097 12.3984 4.14191 12.2037 5.43006C12.1872 5.5388 12.1657 5.65688 12.1433 5.78052C11.9785 6.68765 11.7594 7.89394 13.0324 7.90336ZM28.8379 1.89155L28.0662 5.42963L27.2945 8.99665H30.2097L31.7817 1.89155H28.8379ZM39.2703 1.89155L38.9275 3.30094H35.5549L35.269 4.6241H38.1271L37.9556 5.42963L37.8413 5.94726H34.9545L34.2974 8.99665H31.3533L32.8967 1.89155H39.2703ZM19.4634 1.89155H22.4358L21.3212 6.92553C21.185 7.54096 21.759 7.86184 22.2512 7.90438C22.8843 7.95964 23.4523 7.56179 23.6076 6.89689L24.7795 1.89184H27.7232L26.5514 7.21343C26.0497 8.60082 24.8874 9.14566 23.6042 9.28165C22.8085 9.36642 21.9662 9.29467 21.2067 9.16909L18.5774 6.00484L19.4634 1.89155ZM49.273 1.89155H45.5289L47.844 5.45827L45.4719 7.64426L44.7859 1.89155H41.2134L36.2405 8.99665H38.2983L39.3555 7.44316H42.3852L42.5568 8.99665H46.9297L48.9872 6.83902L50.1877 8.99665H53.8461L51.3881 5.19931L55.1319 1.89155H52.2738L50.4162 3.73263L49.273 1.89155ZM41.9283 3.50214L40.328 5.91844H42.2142L41.9283 3.50214Z" fill="#979797"/>
<path d="M9.51738 2.61048V2.81942H9.68652L9.72174 2.65399L9.51738 2.61048ZM9.86025 1L10.0646 1.04351L10.1184 0.79106H9.86025V1ZM5.65871 2.61048V2.40154H5.48932L5.45429 2.56726L5.65871 2.61048ZM5.37284 3.96258L5.16842 3.91936L5.1151 4.17152H5.37284V3.96258ZM8.8027 3.96258L9.0063 4.00954L9.06532 3.75364H8.8027V3.96258ZM8.43119 5.57335V5.78229H8.59742L8.63478 5.62031L8.43119 5.57335ZM5.00161 5.57335V5.36441H4.83285L4.79735 5.52939L5.00161 5.57335ZM4.63009 7.29957L4.42583 7.25561L4.3714 7.50851H4.63009V7.29957ZM8.68841 7.29957L8.89252 7.34425L8.94804 7.09063H8.68841V7.29957ZM8.3169 8.99656V9.2055H8.48504L8.521 9.04125L8.3169 8.99656ZM1 8.99656L0.796129 8.95082L0.738986 9.2055H1V8.99656ZM1.80032 5.42955L2.00421 5.47529L2.00468 5.47306L1.80032 5.42955ZM2.74358 1V0.79106H2.57445L2.53922 0.956483L2.74358 1ZM15.4906 5.57327V5.36433H15.0463L15.3297 5.70653L15.4906 5.57327ZM17.9772 5.57327V5.78221H18.1538L18.1832 5.60812L17.9772 5.57327ZM20.4922 11.6133V11.8222H20.9365L20.6531 11.48L20.4922 11.6133ZM17.1482 11.6133L16.9866 11.7457L17.0493 11.8222H17.1482V11.6133ZM15.0048 8.99619L15.1664 8.86381L15.0868 8.76659L14.9636 8.79135L15.0048 8.99619ZM12.5433 9.22738L12.5462 9.4363L12.5463 9.4363L12.5433 9.22738ZM9.68868 8.47798L9.8291 8.32326L9.82893 8.32311L9.68868 8.47798ZM9.35036 5.72752L9.55622 5.76322L9.55633 5.76258L9.35036 5.72752ZM9.35037 5.72745L9.1445 5.69175L9.14439 5.69239L9.35037 5.72745ZM9.4329 5.21362L9.64007 5.2408L9.64011 5.24044L9.4329 5.21362ZM10.2318 2.84043L10.0614 2.71949L10.0614 2.7195L10.2318 2.84043ZM14.1188 1.48862L14.1264 1.27982L14.1264 1.27982L14.1188 1.48862ZM14.4881 1.49996L14.4822 1.70882L14.4881 1.49996ZM17.3771 2.00626L17.4792 1.82398L17.4789 1.82379L17.3771 2.00626ZM18.2631 3.64596L18.4717 3.65733L18.4717 3.65715L18.2631 3.64596ZM18.0442 5.19632L17.8386 5.159L17.8383 5.16052L18.0442 5.19632ZM18.0442 5.19635L17.8383 5.16055L17.8379 5.16334L18.0442 5.19635ZM18.0442 5.19638L18.2501 5.23219L18.2505 5.22939L18.0442 5.19638ZM18.0442 5.19642L17.8383 5.16061L17.8379 5.16341L18.0442 5.19642ZM18.0442 5.19645L18.2485 5.24186L18.2505 5.22946L18.0442 5.19645ZM18.0442 5.19648L17.84 5.15112L17.8386 5.15916L18.0442 5.19648ZM15.1188 5.63116L14.9148 5.58605L14.9148 5.58617L15.1188 5.63116ZM13.0324 7.90336L13.034 7.69443L13.0339 7.69443L13.0324 7.90336ZM15.1872 5.33537L15.3906 5.38339V5.38339L15.1872 5.33537ZM14.3758 2.8986L14.391 2.69022L14.3909 2.69021L14.3758 2.8986ZM12.2037 5.43006L12.4103 5.46145L12.4103 5.46129L12.2037 5.43006ZM12.1433 5.78052L11.9377 5.74319V5.74319L12.1433 5.78052ZM28.0662 5.42963L27.8621 5.38511L27.862 5.38545L28.0662 5.42963ZM28.8379 1.89155V1.68261H28.6696L28.6338 1.84702L28.8379 1.89155ZM27.2945 8.99665L27.0903 8.95247L27.0356 9.20559H27.2945V8.99665ZM30.2097 8.99665V9.20559H30.3774L30.4137 9.04178L30.2097 8.99665ZM31.7817 1.89155L31.9857 1.93668L32.0419 1.68261H31.7817V1.89155ZM38.9275 3.30094V3.50988H39.0917L39.1305 3.35032L38.9275 3.30094ZM39.2703 1.89155L39.4733 1.94094L39.5362 1.68261H39.2703V1.89155ZM35.5549 3.30094V3.092H35.3863L35.3507 3.25681L35.5549 3.30094ZM35.269 4.6241L35.0648 4.57998L35.0101 4.83304H35.269V4.6241ZM38.1271 4.6241L38.3315 4.66763L38.3853 4.41516H38.1271V4.6241ZM37.9556 5.42963L38.1596 5.47468L38.1599 5.47316L37.9556 5.42963ZM37.8413 5.94726V6.1562H38.0091L38.0453 5.99231L37.8413 5.94726ZM34.9545 5.94726V5.73832H34.7858L34.7502 5.90325L34.9545 5.94726ZM34.2974 8.99665V9.20559H34.4661L34.5016 9.04066L34.2974 8.99665ZM31.3533 8.99665L31.1492 8.95229L31.0941 9.20559H31.3533V8.99665ZM32.8967 1.89155V1.68261H32.7283L32.6925 1.8472L32.8967 1.89155ZM22.4358 1.89155L22.6398 1.93671L22.6961 1.68261H22.4358V1.89155ZM19.4634 1.89155V1.68261H19.2946L19.2591 1.84755L19.4634 1.89155ZM21.3212 6.92553L21.5252 6.9707L21.5252 6.9707L21.3212 6.92553ZM22.2512 7.90438L22.2694 7.69623L22.2692 7.69621L22.2512 7.90438ZM23.6076 6.89689L23.4042 6.84925L23.4042 6.84934L23.6076 6.89689ZM24.7795 1.89184V1.6829H24.6138L24.576 1.84421L24.7795 1.89184ZM27.7232 1.89184L27.9273 1.93677L27.9832 1.6829H27.7232V1.89184ZM26.5514 7.21343L26.7479 7.28448L26.7525 7.27167L26.7555 7.25836L26.5514 7.21343ZM23.6042 9.28165L23.5821 9.07387L23.582 9.07388L23.6042 9.28165ZM21.2067 9.16909L21.046 9.30262L21.0957 9.36253L21.1726 9.37523L21.2067 9.16909ZM18.5774 6.00484L18.3732 5.96085L18.3518 6.0602L18.4167 6.13837L18.5774 6.00484ZM45.5289 1.89155V1.68261H45.1442L45.3537 2.0053L45.5289 1.89155ZM49.273 1.89155L49.4505 1.78133L49.3892 1.68261H49.273V1.89155ZM47.844 5.45827L47.9856 5.61192L48.1152 5.49242L48.0192 5.34452L47.844 5.45827ZM45.4719 7.64426L45.2645 7.669L45.3129 8.07497L45.6135 7.7979L45.4719 7.64426ZM44.7859 1.89155L44.9934 1.86681L44.9714 1.68261H44.7859V1.89155ZM41.2134 1.89155V1.68261H41.1046L41.0422 1.77174L41.2134 1.89155ZM36.2405 8.99665L36.0693 8.87684L35.8392 9.20559H36.2405V8.99665ZM38.2983 8.99665V9.20559H38.4088L38.471 9.1142L38.2983 8.99665ZM39.3555 7.44316V7.23423H39.245L39.1828 7.32561L39.3555 7.44316ZM42.3852 7.44316L42.5929 7.42023L42.5724 7.23423H42.3852V7.44316ZM42.5568 8.99665L42.3491 9.01958L42.3697 9.20559H42.5568V8.99665ZM46.9297 8.99665V9.20559H47.0191L47.0809 9.14084L46.9297 8.99665ZM48.9872 6.83902L49.1698 6.73743L49.0318 6.48947L48.836 6.69482L48.9872 6.83902ZM50.1877 8.99665L50.0051 9.09823L50.0648 9.20559H50.1877V8.99665ZM53.8461 8.99665V9.20559H54.2302L54.0215 8.88311L53.8461 8.99665ZM51.3881 5.19931L51.2498 5.04273L51.115 5.16184L51.2127 5.31285L51.3881 5.19931ZM55.1319 1.89155L55.2703 2.04813L55.684 1.68261H55.1319V1.89155ZM52.2738 1.89155V1.68261H52.1878L52.1267 1.74315L52.2738 1.89155ZM50.4162 3.73263L50.2387 3.84285L50.3771 4.06563L50.5633 3.88103L50.4162 3.73263ZM40.328 5.91844L40.1538 5.80307L39.939 6.12738H40.328V5.91844ZM41.9283 3.50214L42.1358 3.47759L42.0689 2.91158L41.7541 3.38677L41.9283 3.50214ZM42.2142 5.91844V6.12738H42.4493L42.4217 5.89389L42.2142 5.91844ZM9.72174 2.65399L10.0646 1.04351L9.65589 0.956492L9.31302 2.56697L9.72174 2.65399ZM5.65871 2.81942H9.51738V2.40154H5.65871V2.81942ZM5.57726 4.0058L5.86313 2.6537L5.45429 2.56726L5.16842 3.91936L5.57726 4.0058ZM8.8027 3.75364H5.37284V4.17152H8.8027V3.75364ZM8.63478 5.62031L9.0063 4.00954L8.59911 3.91562L8.22759 5.52639L8.63478 5.62031ZM5.00161 5.78229H8.43119V5.36441H5.00161V5.78229ZM4.83436 7.34353L5.20587 5.61731L4.79735 5.52939L4.42583 7.25561L4.83436 7.34353ZM8.68841 7.09063H4.63009V7.50851H8.68841V7.09063ZM8.521 9.04125L8.89252 7.34425L8.48431 7.25488L8.11279 8.95188L8.521 9.04125ZM1 9.2055H8.3169V8.78762H1V9.2055ZM1.59645 5.3838L0.796129 8.95082L1.20387 9.0423L2.00419 5.47529L1.59645 5.3838ZM2.53922 0.956483L1.59596 5.38603L2.00468 5.47306L2.94794 1.04352L2.53922 0.956483ZM9.86025 0.79106H2.74358V1.20894H9.86025V0.79106ZM15.4906 5.78221H17.9772V5.36433H15.4906V5.78221ZM20.6531 11.48L15.6515 5.44001L15.3297 5.70653L20.3312 11.7466L20.6531 11.48ZM17.1482 11.8222H20.4922V11.4044H17.1482V11.8222ZM14.8431 9.12858L16.9866 11.7457L17.3099 11.4809L15.1664 8.86381L14.8431 9.12858ZM12.5463 9.4363C13.3866 9.42434 14.2095 9.36915 15.0459 9.20104L14.9636 8.79135C14.1617 8.95251 13.3667 9.0067 12.5404 9.01846L12.5463 9.4363ZM9.54826 8.6327C9.90417 8.9557 10.4574 9.15545 11.0001 9.27503C11.5496 9.39614 12.1222 9.44215 12.5462 9.4363L12.5405 9.01846C12.1463 9.0239 11.606 8.98065 11.09 8.86695C10.5672 8.75173 10.1022 8.57114 9.8291 8.32326L9.54826 8.6327ZM9.14449 5.69181C9.06547 6.14742 8.96935 6.69714 8.98662 7.2153C9.00393 7.73442 9.13601 8.25937 9.54843 8.63285L9.82893 8.32311C9.53667 8.05844 9.41983 7.66802 9.40427 7.20138C9.38868 6.73378 9.47573 6.22734 9.55622 5.76322L9.14449 5.69181ZM9.14439 5.69239L9.14438 5.69246L9.55633 5.76258L9.55634 5.76251L9.14439 5.69239ZM9.22574 5.18644C9.20596 5.33717 9.17669 5.50614 9.1445 5.69175L9.55623 5.76316C9.58803 5.5798 9.61895 5.40177 9.64007 5.2408L9.22574 5.18644ZM10.0614 2.7195C9.58382 3.39236 9.32614 4.41082 9.22569 5.1868L9.64011 5.24044C9.73758 4.48753 9.98393 3.55061 10.4022 2.96136L10.0614 2.7195ZM14.1264 1.27982C12.7473 1.22945 10.9988 1.39887 10.0614 2.71949L10.4022 2.96137C11.2014 1.83531 12.7335 1.6471 14.1112 1.69742L14.1264 1.27982ZM14.4939 1.2911C14.3668 1.28755 14.2442 1.28413 14.1264 1.27982L14.1112 1.69742C14.231 1.7018 14.3555 1.70528 14.4822 1.70882L14.4939 1.2911ZM17.4789 1.82379C17.0445 1.5815 16.5297 1.45677 16.0143 1.38791C15.4982 1.31896 14.9658 1.30428 14.4939 1.2911L14.4822 1.70882C14.9577 1.7221 15.4682 1.73654 15.959 1.80211C16.4505 1.86778 16.9064 1.98296 17.2753 2.18873L17.4789 1.82379ZM18.4717 3.65715C18.4932 3.25712 18.4259 2.89654 18.2573 2.5834C18.0885 2.26985 17.8257 2.01811 17.4792 1.82398L17.275 2.18853C17.5642 2.35058 17.7642 2.54906 17.8894 2.7815C18.0147 3.01435 18.0726 3.29553 18.0544 3.63477L18.4717 3.65715ZM18.2498 5.23363C18.3359 4.75885 18.444 4.1653 18.4717 3.65733L18.0544 3.63459C18.0284 4.11135 17.926 4.67764 17.8386 5.159L18.2498 5.23363ZM18.25 5.23215L18.25 5.23212L17.8383 5.16052L17.8383 5.16055L18.25 5.23215ZM18.2505 5.22939L18.2505 5.22936L17.8379 5.16334L17.8379 5.16337L18.2505 5.22939ZM18.25 5.23222L18.25 5.23218L17.8383 5.16058L17.8383 5.16062L18.25 5.23222ZM18.2505 5.22946L18.2505 5.22943L17.8379 5.16341L17.8379 5.16344L18.2505 5.22946ZM18.2481 5.2418L18.2481 5.24178L17.8402 5.15113L17.8402 5.15115L18.2481 5.2418ZM18.1832 5.60812C18.2023 5.495 18.2252 5.36928 18.2497 5.23379L17.8386 5.15916C17.8141 5.29401 17.7908 5.42235 17.7712 5.53842L18.1832 5.60812ZM14.9148 5.58617C14.7778 6.20725 14.6234 6.73734 14.3455 7.11208C14.0809 7.46887 13.6928 7.69959 13.034 7.69443L13.0307 8.1123C13.8126 8.11842 14.331 7.8331 14.6811 7.361C15.0179 6.90684 15.1864 6.29518 15.3229 5.67614L14.9148 5.58617ZM14.9839 5.28736C14.9598 5.3893 14.9361 5.48991 14.9148 5.58605L15.3228 5.67626C15.3433 5.58357 15.3664 5.48595 15.3906 5.38339L14.9839 5.28736ZM14.3606 3.10699C14.6674 3.12935 14.852 3.21805 14.966 3.32862C15.0807 3.43982 15.1483 3.59654 15.1755 3.8013C15.2318 4.22514 15.1065 4.76804 14.9839 5.28736L15.3906 5.38339C15.5075 4.88819 15.6583 4.26238 15.5897 3.74631C15.5545 3.48111 15.4596 3.22506 15.2569 3.02858C15.0535 2.83146 14.7658 2.71753 14.391 2.69022L14.3606 3.10699ZM12.4103 5.46129C12.5063 4.82595 12.6731 4.20461 12.979 3.75921C13.2747 3.32868 13.7008 3.05909 14.3607 3.107L14.3909 2.69021C13.5682 2.63048 13.0055 2.98255 12.6346 3.52261C12.2738 4.04781 12.0958 4.74603 11.9971 5.39883L12.4103 5.46129ZM12.3488 5.81786C12.3712 5.69494 12.3932 5.57374 12.4103 5.46145L11.9971 5.39868C11.9811 5.50386 11.9603 5.61883 11.9377 5.74319L12.3488 5.81786ZM13.0339 7.69443C12.7481 7.69231 12.5747 7.62353 12.4662 7.53408C12.358 7.44479 12.2891 7.31391 12.2535 7.13736C12.1793 6.76864 12.2642 6.28403 12.3488 5.81786L11.9377 5.74319C11.8576 6.18415 11.7506 6.75624 11.8439 7.21981C11.8921 7.45939 11.9968 7.68855 12.2003 7.85644C12.4036 8.02417 12.6801 8.1097 13.0308 8.1123L13.0339 7.69443ZM28.2704 5.47415L29.042 1.93607L28.6338 1.84702L27.8621 5.38511L28.2704 5.47415ZM27.4988 9.04082L28.2704 5.47381L27.862 5.38545L27.0903 8.95247L27.4988 9.04082ZM30.2097 8.78771H27.2945V9.20559H30.2097V8.78771ZM31.5777 1.84641L30.0057 8.95151L30.4137 9.04178L31.9857 1.93668L31.5777 1.84641ZM28.8379 2.10049H31.7817V1.68261H28.8379V2.10049ZM39.1305 3.35032L39.4733 1.94094L39.0673 1.84216L38.7244 3.25155L39.1305 3.35032ZM35.5549 3.50988H38.9275V3.092H35.5549V3.50988ZM35.4732 4.66822L35.7591 3.34506L35.3507 3.25681L35.0648 4.57998L35.4732 4.66822ZM38.1271 4.41516H35.269V4.83304H38.1271V4.41516ZM38.1599 5.47316L38.3315 4.66763L37.9228 4.58057L37.7512 5.3861L38.1599 5.47316ZM38.0453 5.99231L38.1596 5.47468L37.7515 5.38458L37.6372 5.90222L38.0453 5.99231ZM34.9545 6.1562H37.8413V5.73832H34.9545V6.1562ZM34.5016 9.04066L35.1587 5.99128L34.7502 5.90325L34.0931 8.95263L34.5016 9.04066ZM31.3533 9.20559H34.2974V8.78771H31.3533V9.20559ZM32.6925 1.8472L31.1492 8.95229L31.5575 9.041L33.1009 1.9359L32.6925 1.8472ZM39.2703 1.68261H32.8967V2.10049H39.2703V1.68261ZM22.4358 1.68261H19.4634V2.10049H22.4358V1.68261ZM21.5252 6.9707L22.6398 1.93671L22.2318 1.84638L21.1172 6.88036L21.5252 6.9707ZM22.2692 7.69621C22.0551 7.67771 21.8339 7.59853 21.6872 7.4717C21.5507 7.35374 21.4755 7.19527 21.5252 6.9707L21.1172 6.88036C21.0307 7.27122 21.1744 7.5809 21.4139 7.78788C21.6432 7.98599 21.9551 8.08851 22.2332 8.11254L22.2692 7.69621ZM23.4042 6.84934C23.2721 7.41437 22.7976 7.74234 22.2694 7.69623L22.233 8.11252C22.971 8.17694 23.6324 7.70922 23.8111 6.94443L23.4042 6.84934ZM24.576 1.84421L23.4042 6.84925L23.8111 6.94452L24.9829 1.93947L24.576 1.84421ZM27.7232 1.6829H24.7795V2.10078H27.7232V1.6829ZM26.7555 7.25836L27.9273 1.93677L27.5192 1.8469L26.3474 7.16849L26.7555 7.25836ZM23.6262 9.48942C24.9543 9.34867 26.2089 8.77504 26.7479 7.28448L26.3549 7.14237C25.8905 8.42661 24.8204 8.94264 23.5821 9.07387L23.6262 9.48942ZM21.1726 9.37523C21.9421 9.50247 22.8049 9.57693 23.6263 9.48941L23.582 9.07388C22.8121 9.15592 21.9902 9.08687 21.2407 8.96295L21.1726 9.37523ZM18.4167 6.13837L21.046 9.30262L21.3674 9.03556L18.7381 5.87131L18.4167 6.13837ZM19.2591 1.84755L18.3732 5.96085L18.7817 6.04884L19.6676 1.93554L19.2591 1.84755ZM45.5289 2.10049H49.273V1.68261H45.5289V2.10049ZM48.0192 5.34452L45.7042 1.77779L45.3537 2.0053L47.6687 5.57203L48.0192 5.34452ZM45.6135 7.7979L47.9856 5.61192L47.7024 5.30463L45.3304 7.49061L45.6135 7.7979ZM44.5784 1.91629L45.2645 7.669L45.6794 7.61952L44.9934 1.86681L44.5784 1.91629ZM41.2134 2.10049H44.7859V1.68261H41.2134V2.10049ZM36.4116 9.11646L41.3846 2.01136L41.0422 1.77174L36.0693 8.87684L36.4116 9.11646ZM38.2983 8.78771H36.2405V9.20559H38.2983V8.78771ZM39.1828 7.32561L38.1255 8.87909L38.471 9.1142L39.5283 7.56072L39.1828 7.32561ZM42.3852 7.23423H39.3555V7.6521H42.3852V7.23423ZM42.7645 8.97371L42.5929 7.42023L42.1776 7.4661L42.3491 9.01958L42.7645 8.97371ZM46.9297 8.78771H42.5568V9.20559H46.9297V8.78771ZM48.836 6.69482L46.7784 8.85245L47.0809 9.14084L49.1384 6.98321L48.836 6.69482ZM50.3702 8.89506L49.1698 6.73743L48.8046 6.9406L50.0051 9.09823L50.3702 8.89506ZM53.8461 8.78771H50.1877V9.20559H53.8461V8.78771ZM51.2127 5.31285L53.6707 9.11018L54.0215 8.88311L51.5635 5.08578L51.2127 5.31285ZM54.9936 1.73497L51.2498 5.04273L51.5265 5.35589L55.2703 2.04813L54.9936 1.73497ZM52.2738 2.10049H55.1319V1.68261H52.2738V2.10049ZM50.5633 3.88103L52.4209 2.03995L52.1267 1.74315L50.2691 3.58423L50.5633 3.88103ZM49.0955 2.00177L50.2387 3.84285L50.5937 3.62242L49.4505 1.78133L49.0955 2.00177ZM40.5022 6.03381L42.1025 3.61751L41.7541 3.38677L40.1538 5.80307L40.5022 6.03381ZM42.2142 5.7095H40.328V6.12738H42.2142V5.7095ZM41.7209 3.52669L42.0067 5.94299L42.4217 5.89389L42.1358 3.47759L41.7209 3.52669Z" fill="#979797"/>
</g>
</svg>
