<svg width="168" height="36" viewBox="0 0 168 36" fill="none" xmlns="http://www.w3.org/2000/svg">
<g id="Equifax" opacity="0.8">
<path fill-rule="evenodd" clip-rule="evenodd" d="M29.5808 3L28.5521 7.83144H16.9761L16.1185 11.8877H26.4081L25.2936 16.72H15.0048L13.8903 21.8987H26.0652L24.9507 26.9897H3L5.40097 16.2886L8.23074 3H29.5808ZM53.9316 16.7198H46.4717L61.4765 34.8399H51.4447L45.0143 26.9886C42.5569 27.4825 40.1299 27.6466 37.63 27.6821C35.1752 27.716 30.9531 27.1466 29.066 25.4339C26.952 23.5195 27.5725 19.9418 28.0511 17.1826L28.0511 17.1824C28.1471 16.6289 28.2374 16.1084 28.2987 15.6409C28.5956 13.3475 29.3516 10.4145 30.6953 8.52129C33.3003 4.85127 38.2211 4.31483 42.3564 4.46587C42.7129 4.47889 43.0834 4.48924 43.4642 4.49988C46.3062 4.57925 49.7216 4.67463 52.1313 6.01877C54.0383 7.08731 54.9081 8.72007 54.7892 10.9379C54.7087 12.415 54.3929 14.1547 54.1326 15.5889L54.1326 15.589L54.1326 15.5892L54.1325 15.5893L54.1325 15.5894L54.1325 15.5894C54.0589 15.9949 53.9897 16.376 53.9316 16.7198ZM39.0971 23.7101C43.419 23.7439 44.5362 20.6138 45.3564 16.8935C45.4191 16.6102 45.4893 16.3129 45.5617 16.0061C46.2804 12.9626 47.2176 8.99389 43.1273 8.69581C38.6796 8.37291 37.1952 12.4257 36.6111 16.2902C36.5615 16.6164 36.4972 16.9706 36.4298 17.3416C35.9356 20.0629 35.2783 23.6818 39.0971 23.7101ZM86.5137 5.67464L84.1987 16.2889L81.8836 26.9899H90.629L95.345 5.67464H86.5137ZM117.811 5.67464L116.782 9.90281H106.665L105.807 13.8723H114.381L113.867 16.2889L113.524 17.8418H104.863L102.892 26.9899H94.06L98.6901 5.67464H117.811ZM58.3901 5.67464H67.3074L63.9637 20.7766C63.5549 22.6229 65.2771 23.5855 66.7536 23.7131C68.6528 23.8789 70.3568 22.6854 70.8229 20.6907L74.3384 5.67551H83.1697L79.6542 21.6403C78.1491 25.8025 74.6622 27.437 70.8125 27.8449C68.4254 28.0993 65.8986 27.884 63.62 27.5073L55.7322 18.0145L58.3901 5.67464ZM147.819 5.67464H136.587L143.532 16.3748L136.416 22.9328L134.358 5.67464H123.64L108.721 26.9899H114.895L118.067 22.3295H127.156L127.67 26.9899H140.789L146.962 20.5171L150.563 26.9899H161.538L154.164 15.5979L165.396 5.67464H156.821L151.249 11.1979L147.819 5.67464ZM125.785 10.5064L120.984 17.7553H126.643L125.785 10.5064Z" fill="#979797"/>
<path d="M28.5521 7.83144V8.45826H29.0596L29.1652 7.96197L28.5521 7.83144ZM29.5808 3L30.1938 3.13052L30.3551 2.37318H29.5808V3ZM16.9761 7.83144V7.20462H16.468L16.3629 7.70178L16.9761 7.83144ZM16.1185 11.8877L15.5052 11.7581L15.3453 12.5146H16.1185V11.8877ZM26.4081 11.8877L27.0189 12.0286L27.196 11.2609H26.4081V11.8877ZM25.2936 16.72V17.3469H25.7923L25.9043 16.8609L25.2936 16.72ZM15.0048 16.72V16.0932H14.4986L14.392 16.5882L15.0048 16.72ZM13.8903 21.8987L13.2775 21.7668L13.1142 22.5255H13.8903V21.8987ZM26.0652 21.8987L26.6776 22.0328L26.8441 21.2719H26.0652V21.8987ZM24.9507 26.9897V27.6165H25.4551L25.563 27.1237L24.9507 26.9897ZM3 26.9897L2.38839 26.8525L2.21696 27.6165H3V26.9897ZM5.40097 16.2886L6.01262 16.4259L6.01404 16.4192L5.40097 16.2886ZM8.23074 3V2.37318H7.72334L7.61766 2.86945L8.23074 3ZM46.4717 16.7198V16.093H45.1389L45.989 17.1196L46.4717 16.7198ZM53.9316 16.7198V17.3466H54.4613L54.5496 16.8244L53.9316 16.7198ZM61.4765 34.8399V35.4667H62.8094L61.9593 34.4401L61.4765 34.8399ZM51.4447 34.8399L50.9597 35.2371L51.1478 35.4667H51.4447V34.8399ZM45.0143 26.9886L45.4993 26.5914L45.2604 26.2998L44.8908 26.3741L45.0143 26.9886ZM37.63 27.6821L37.6387 28.3089L37.6389 28.3089L37.63 27.6821ZM29.066 25.4339L29.4873 24.9698L29.4868 24.9693L29.066 25.4339ZM28.0511 17.1826L28.6687 17.2897L28.669 17.2877L28.0511 17.1826ZM28.0511 17.1824L27.4335 17.0752L27.4332 17.0772L28.0511 17.1824ZM28.2987 15.6409L28.9202 15.7224L28.9203 15.7213L28.2987 15.6409ZM30.6953 8.52129L30.1842 8.15848L30.1842 8.15849L30.6953 8.52129ZM42.3564 4.46587L42.3793 3.83947L42.3793 3.83947L42.3564 4.46587ZM43.4642 4.49988L43.4467 5.12645L43.4642 4.49988ZM52.1313 6.01877L52.4377 5.47194L52.4366 5.47136L52.1313 6.01877ZM54.7892 10.9379L55.4151 10.972L55.4151 10.9714L54.7892 10.9379ZM54.1326 15.5889L53.5158 15.477L53.515 15.4815L54.1326 15.5889ZM54.1326 15.589L53.515 15.4816L53.5136 15.49L54.1326 15.589ZM54.1326 15.5892L54.7502 15.6966L54.7515 15.6882L54.1326 15.5892ZM54.1325 15.5893L53.5149 15.4818L53.5136 15.4902L54.1325 15.5893ZM54.1325 15.5894L54.7455 15.7256L54.7515 15.6884L54.1325 15.5894ZM54.1325 15.5894L53.5201 15.4534L53.5158 15.4775L54.1325 15.5894ZM45.3564 16.8935L44.7444 16.7581L44.7443 16.7585L45.3564 16.8935ZM39.0971 23.7101L39.102 23.0833L39.1017 23.0833L39.0971 23.7101ZM45.5617 16.0061L46.1718 16.1502V16.1502L45.5617 16.0061ZM43.1273 8.69581L43.1729 8.07065L43.1727 8.07064L43.1273 8.69581ZM36.6111 16.2902L37.2308 16.3843L37.2308 16.3839L36.6111 16.2902ZM36.4298 17.3416L35.8131 17.2296V17.2296L36.4298 17.3416ZM84.1987 16.2889L83.5863 16.1553L83.586 16.1563L84.1987 16.2889ZM86.5137 5.67464V5.04782H86.0089L85.9013 5.54107L86.5137 5.67464ZM81.8836 26.9899L81.271 26.8574L81.1067 27.6168H81.8836V26.9899ZM90.629 26.9899V27.6168H91.1323L91.241 27.1253L90.629 26.9899ZM95.345 5.67464L95.957 5.81005L96.1257 5.04782H95.345V5.67464ZM116.782 9.90281V10.5296H117.275L117.391 10.051L116.782 9.90281ZM117.811 5.67464L118.42 5.82281L118.609 5.04782H117.811V5.67464ZM106.665 9.90281V9.27599H106.159L106.052 9.77043L106.665 9.90281ZM105.807 13.8723L105.194 13.7399L105.03 14.4991H105.807V13.8723ZM114.381 13.8723L114.994 14.0029L115.156 13.2455H114.381V13.8723ZM113.867 16.2889L114.479 16.424L114.48 16.4195L113.867 16.2889ZM113.524 17.8418V18.4686H114.027L114.136 17.9769L113.524 17.8418ZM104.863 17.8418V17.215H104.357L104.251 17.7098L104.863 17.8418ZM102.892 26.9899V27.6168H103.398L103.505 27.122L102.892 26.9899ZM94.06 26.9899L93.4475 26.8569L93.2824 27.6168H94.06V26.9899ZM98.6901 5.67464V5.04782H98.1848L98.0775 5.54159L98.6901 5.67464ZM67.3074 5.67464L67.9194 5.81014L68.0882 5.04782H67.3074V5.67464ZM58.3901 5.67464V5.04782H57.8839L57.7774 5.54266L58.3901 5.67464ZM63.9637 20.7766L64.5757 20.9121L64.5757 20.9121L63.9637 20.7766ZM66.7536 23.7131L66.8081 23.0887L66.8076 23.0886L66.7536 23.7131ZM70.8229 20.6907L70.2126 20.5478L70.2125 20.548L70.8229 20.6907ZM74.3384 5.67551V5.04869H73.8414L73.7281 5.53262L74.3384 5.67551ZM83.1697 5.67551L83.7819 5.81031L83.9496 5.04869H83.1697V5.67551ZM79.6542 21.6403L80.2437 21.8534L80.2576 21.815L80.2664 21.7751L79.6542 21.6403ZM70.8125 27.8449L70.7464 27.2216L70.7461 27.2217L70.8125 27.8449ZM63.62 27.5073L63.1379 27.9079L63.2872 28.0876L63.5178 28.1257L63.62 27.5073ZM55.7322 18.0145L55.1195 17.8825L55.0553 18.1806L55.2501 18.4151L55.7322 18.0145ZM136.587 5.67464V5.04782H135.433L136.061 6.0159L136.587 5.67464ZM147.819 5.67464L148.352 5.34399L148.168 5.04782H147.819V5.67464ZM143.532 16.3748L143.957 16.8358L144.346 16.4773L144.058 16.0336L143.532 16.3748ZM136.416 22.9328L135.793 23.007L135.939 24.2249L136.841 23.3937L136.416 22.9328ZM134.358 5.67464L134.98 5.60042L134.914 5.04782H134.358V5.67464ZM123.64 5.67464V5.04782H123.314L123.127 5.31521L123.64 5.67464ZM108.721 26.9899L108.208 26.6305L107.518 27.6168H108.721V26.9899ZM114.895 26.9899V27.6168H115.226L115.413 27.3426L114.895 26.9899ZM118.067 22.3295V21.7027H117.735L117.548 21.9768L118.067 22.3295ZM127.156 22.3295L127.779 22.2607L127.717 21.7027H127.156V22.3295ZM127.67 26.9899L127.047 27.0588L127.109 27.6168H127.67V26.9899ZM140.789 26.9899V27.6168H141.057L141.243 27.4225L140.789 26.9899ZM146.962 20.5171L147.509 20.2123L147.095 19.4684L146.508 20.0845L146.962 20.5171ZM150.563 26.9899L150.015 27.2947L150.194 27.6168H150.563V26.9899ZM161.538 26.9899V27.6168H162.691L162.065 26.6493L161.538 26.9899ZM154.164 15.5979L153.749 15.1282L153.345 15.4855L153.638 15.9385L154.164 15.5979ZM165.396 5.67464L165.811 6.14438L167.052 5.04782H165.396V5.67464ZM156.821 5.67464V5.04782H156.563L156.38 5.22944L156.821 5.67464ZM151.249 11.1979L150.716 11.5286L151.131 12.1969L151.69 11.6431L151.249 11.1979ZM120.984 17.7553L120.461 17.4092L119.817 18.3821H120.984V17.7553ZM125.785 10.5064L126.408 10.4328L126.207 8.73473L125.262 10.1603L125.785 10.5064ZM126.643 17.7553V18.3821H127.348L127.265 17.6817L126.643 17.7553ZM29.1652 7.96197L30.1938 3.13052L28.9677 2.86948L27.9391 7.70092L29.1652 7.96197ZM16.9761 8.45826H28.5521V7.20462H16.9761V8.45826ZM16.7318 12.0174L17.5894 7.9611L16.3629 7.70178L15.5052 11.7581L16.7318 12.0174ZM26.4081 11.2609H16.1185V12.5146H26.4081V11.2609ZM25.9043 16.8609L27.0189 12.0286L25.7973 11.7469L24.6828 16.5792L25.9043 16.8609ZM15.0048 17.3469H25.2936V16.0932H15.0048V17.3469ZM14.5031 22.0306L15.6176 16.8519L14.392 16.5882L13.2775 21.7668L14.5031 22.0306ZM26.0652 21.2719H13.8903V22.5255H26.0652V21.2719ZM25.563 27.1237L26.6776 22.0328L25.4529 21.7647L24.3384 26.8556L25.563 27.1237ZM3 27.6165H24.9507V26.3629H3V27.6165ZM4.78935 16.1514L2.38839 26.8525L3.61161 27.1269L6.01258 16.4259L4.78935 16.1514ZM7.61766 2.86945L4.78789 16.1581L6.01404 16.4192L8.84381 3.13055L7.61766 2.86945ZM29.5808 2.37318H8.23074V3.62682H29.5808V2.37318ZM46.4717 17.3466H53.9316V16.093H46.4717V17.3466ZM61.9593 34.4401L46.9545 16.32L45.989 17.1196L60.9937 35.2397L61.9593 34.4401ZM51.4447 35.4667H61.4765V34.2131H51.4447V35.4667ZM44.5294 27.3858L50.9597 35.2371L51.9296 34.4427L45.4993 26.5914L44.5294 27.3858ZM37.6389 28.3089C40.1597 28.273 42.6286 28.1074 45.1378 27.6031L44.8908 26.3741C42.4852 26.8575 40.1002 27.0201 37.6211 27.0554L37.6389 28.3089ZM28.6448 25.8981C29.7125 26.8671 31.3723 27.4664 33.0002 27.8251C34.6489 28.1884 36.3665 28.3264 37.6387 28.3089L37.6214 27.0554C36.4388 27.0717 34.8179 26.9419 33.27 26.6008C31.7015 26.2552 30.3067 25.7134 29.4873 24.9698L28.6448 25.8981ZM27.4335 17.0754C27.1964 18.4423 26.908 20.0914 26.9599 21.6459C27.0118 23.2033 27.408 24.7781 28.6453 25.8986L29.4868 24.9693C28.61 24.1753 28.2595 23.0041 28.2128 21.6041C28.166 20.2013 28.4272 18.682 28.6687 17.2897L27.4335 17.0754ZM27.4332 17.0772L27.4331 17.0774L28.669 17.2877L28.669 17.2875L27.4332 17.0772ZM27.6772 15.5593C27.6179 16.0115 27.5301 16.5184 27.4335 17.0752L28.6687 17.2895C28.7641 16.7394 28.8568 16.2053 28.9202 15.7224L27.6772 15.5593ZM30.1842 8.15849C28.7515 10.1771 27.9784 13.2325 27.6771 15.5604L28.9203 15.7213C29.2127 13.4626 29.9518 10.6518 31.2065 8.88409L30.1842 8.15849ZM42.3793 3.83947C38.2418 3.68835 32.9963 4.1966 30.1842 8.15848L31.2065 8.8841C33.6043 5.50594 38.2005 4.94131 42.3335 5.09227L42.3793 3.83947ZM43.4817 3.8733C43.1003 3.86265 42.7326 3.85238 42.3793 3.83947L42.3335 5.09227C42.6931 5.10541 43.0664 5.11583 43.4467 5.12645L43.4817 3.8733ZM52.4366 5.47136C51.1336 4.7445 49.589 4.3703 48.0429 4.16374C46.4946 3.95687 44.8973 3.91284 43.4817 3.8733L43.4467 5.12645C44.8731 5.16629 46.4046 5.20963 47.8769 5.40633C49.3514 5.60333 50.7193 5.94889 51.8259 6.56618L52.4366 5.47136ZM55.4151 10.9714C55.4795 9.77136 55.2777 8.68962 54.7719 7.75019C54.2654 6.80956 53.4771 6.05434 52.4377 5.47194L51.8249 6.5656C52.6925 7.05174 53.2926 7.64717 53.6681 8.34451C54.0442 9.04305 54.2178 9.88659 54.1633 10.9043L55.4151 10.9714ZM54.7493 15.7009C55.0078 14.2765 55.332 12.4959 55.4151 10.972L54.1633 10.9038C54.0853 12.334 53.7779 14.0329 53.5158 15.477L54.7493 15.7009ZM54.7501 15.6964L54.7501 15.6963L53.515 15.4815L53.515 15.4816L54.7501 15.6964ZM54.7515 15.6882L54.7515 15.6881L53.5136 15.49L53.5136 15.4901L54.7515 15.6882ZM54.7501 15.6967L54.7501 15.6966L53.515 15.4818L53.515 15.4819L54.7501 15.6967ZM54.7515 15.6884L54.7515 15.6883L53.5136 15.4902L53.5136 15.4903L54.7515 15.6884ZM54.7444 15.7254L54.7444 15.7253L53.5206 15.4534L53.5206 15.4535L54.7444 15.7254ZM54.5496 16.8244C54.607 16.485 54.6755 16.1078 54.7492 15.7014L53.5158 15.4775C53.4423 15.882 53.3724 16.267 53.3135 16.6153L54.5496 16.8244ZM44.7443 16.7585C44.3335 18.6218 43.8701 20.212 43.0364 21.3362C42.2426 22.4066 41.0784 23.0988 39.102 23.0833L39.0922 24.3369C41.4377 24.3553 42.993 23.4993 44.0434 22.083C45.0538 20.7205 45.5591 18.8855 45.9686 17.0284L44.7443 16.7585ZM44.9517 15.8621C44.8795 16.1679 44.8082 16.4697 44.7444 16.7581L45.9685 17.0288C46.03 16.7507 46.0991 16.4579 46.1718 16.1502L44.9517 15.8621ZM43.0818 9.32097C44.0023 9.38806 44.5559 9.65415 44.8981 9.98586C45.2422 10.3195 45.445 10.7896 45.5265 11.4039C45.6953 12.6754 45.3196 14.3041 44.9517 15.8621L46.1718 16.1502C46.5226 14.6646 46.9748 12.7871 46.7692 11.2389C46.6636 10.4433 46.3787 9.67519 45.7706 9.08574C45.1606 8.49437 44.2975 8.1526 43.1729 8.07065L43.0818 9.32097ZM37.2308 16.3839C37.519 14.4778 38.0192 12.6138 38.937 11.2776C39.8242 9.98603 41.1024 9.17727 43.082 9.32099L43.1727 8.07064C40.7045 7.89144 39.0166 8.94764 37.9037 10.5678C36.8214 12.1434 36.2873 14.2381 35.9913 16.1965L37.2308 16.3839ZM37.0465 17.4536C37.1135 17.0848 37.1796 16.7212 37.2308 16.3843L35.9913 16.196C35.9434 16.5116 35.8808 16.8565 35.8131 17.2296L37.0465 17.4536ZM39.1017 23.0833C38.2444 23.0769 37.724 22.8706 37.3986 22.6022C37.0739 22.3344 36.8672 21.9417 36.7606 21.4121C36.5379 20.3059 36.7925 18.8521 37.0465 17.4536L35.8131 17.2296C35.5728 18.5524 35.2517 20.2687 35.5316 21.6594C35.6762 22.3782 35.9903 23.0657 36.6009 23.5693C37.2109 24.0725 38.0404 24.3291 39.0925 24.3369L39.1017 23.0833ZM84.8111 16.4225L87.1261 5.80821L85.9013 5.54107L83.5863 16.1553L84.8111 16.4225ZM82.4963 27.1225L84.8113 16.4214L83.586 16.1563L81.271 26.8574L82.4963 27.1225ZM90.629 26.3631H81.8836V27.6168H90.629V26.3631ZM94.733 5.53923L90.017 26.8545L91.241 27.1253L95.957 5.81005L94.733 5.53923ZM86.5137 6.30146H95.345V5.04782H86.5137V6.30146ZM117.391 10.051L118.42 5.82281L117.202 5.52647L116.173 9.75464L117.391 10.051ZM106.665 10.5296H116.782V9.27599H106.665V10.5296ZM106.42 14.0047L107.277 10.0352L106.052 9.77043L105.194 13.7399L106.42 14.0047ZM114.381 13.2455H105.807V14.4991H114.381V13.2455ZM114.48 16.4195L114.994 14.0029L113.768 13.7417L113.254 16.1583L114.48 16.4195ZM114.136 17.9769L114.479 16.424L113.255 16.1537L112.912 17.7067L114.136 17.9769ZM104.863 18.4686H113.524V17.215H104.863V18.4686ZM103.505 27.122L105.476 17.9738L104.251 17.7098L102.279 26.8579L103.505 27.122ZM94.06 27.6168H102.892V26.3631H94.06V27.6168ZM98.0775 5.54159L93.4475 26.8569L94.6725 27.123L99.3026 5.80769L98.0775 5.54159ZM117.811 5.04782H98.6901V6.30146H117.811V5.04782ZM67.3074 5.04782H58.3901V6.30146H67.3074V5.04782ZM64.5757 20.9121L67.9194 5.81014L66.6954 5.53914L63.3517 20.6411L64.5757 20.9121ZM66.8076 23.0886C66.1654 23.0331 65.5018 22.7956 65.0615 22.4151C64.652 22.0612 64.4265 21.5858 64.5757 20.9121L63.3517 20.6411C63.0921 21.8137 63.5233 22.7427 64.2418 23.3636C64.9295 23.958 65.8653 24.2655 66.6996 24.3376L66.8076 23.0886ZM70.2125 20.548C69.8164 22.2431 68.3927 23.227 66.8081 23.0887L66.6991 24.3376C68.913 24.5308 70.8971 23.1277 71.4333 20.8333L70.2125 20.548ZM73.7281 5.53262L70.2126 20.5478L71.4332 20.8335L74.9487 5.8184L73.7281 5.53262ZM83.1697 5.04869H74.3384V6.30233H83.1697V5.04869ZM80.2664 21.7751L83.7819 5.81031L82.5576 5.54071L79.0421 21.5055L80.2664 21.7751ZM70.8785 28.4683C74.863 28.046 78.6266 26.3251 80.2437 21.8534L79.0648 21.4271C77.6715 25.2798 74.4613 26.8279 70.7464 27.2216L70.8785 28.4683ZM63.5178 28.1257C65.8264 28.5074 68.4146 28.7308 70.8789 28.4682L70.7461 27.2217C68.4362 27.4678 65.9707 27.2606 63.7222 26.8889L63.5178 28.1257ZM55.2501 18.4151L63.1379 27.9079L64.1021 27.1067L56.2143 17.6139L55.2501 18.4151ZM57.7774 5.54266L55.1195 17.8825L56.345 18.1465L59.0029 5.80663L57.7774 5.54266ZM136.587 6.30146H147.819V5.04782H136.587V6.30146ZM144.058 16.0336L137.113 5.33338L136.061 6.0159L143.006 16.7161L144.058 16.0336ZM136.841 23.3937L143.957 16.8358L143.107 15.9139L135.991 22.4718L136.841 23.3937ZM133.735 5.74887L135.793 23.007L137.038 22.8586L134.98 5.60042L133.735 5.74887ZM123.64 6.30146H134.358V5.04782H123.64V6.30146ZM109.235 27.3494L124.154 6.03407L123.127 5.31521L108.208 26.6305L109.235 27.3494ZM114.895 26.3631H108.721V27.6168H114.895V26.3631ZM117.548 21.9768L114.377 26.6373L115.413 27.3426L118.585 22.6822L117.548 21.9768ZM127.156 21.7027H118.067V22.9563H127.156V21.7027ZM128.293 26.9211L127.779 22.2607L126.533 22.3983L127.047 27.0588L128.293 26.9211ZM140.789 26.3631H127.67V27.6168H140.789V26.3631ZM146.508 20.0845L140.335 26.5574L141.243 27.4225L147.415 20.9496L146.508 20.0845ZM151.111 26.6852L147.509 20.2123L146.414 20.8218L150.015 27.2947L151.111 26.6852ZM161.538 26.3631H150.563V27.6168H161.538V26.3631ZM153.638 15.9385L161.012 27.3305L162.065 26.6493L154.691 15.2573L153.638 15.9385ZM164.981 5.2049L153.749 15.1282L154.579 16.0677L165.811 6.14438L164.981 5.2049ZM156.821 6.30146H165.396V5.04782H156.821V6.30146ZM151.69 11.6431L157.263 6.11984L156.38 5.22944L150.807 10.7527L151.69 11.6431ZM147.287 6.0053L150.716 11.5286L151.781 10.8672L148.352 5.34399L147.287 6.0053ZM121.507 18.1014L126.308 10.8525L125.262 10.1603L120.461 17.4092L121.507 18.1014ZM126.643 17.1285H120.984V18.3821H126.643V17.1285ZM125.163 10.5801L126.02 17.829L127.265 17.6817L126.408 10.4328L125.163 10.5801Z" fill="#979797"/>
</g>
</svg>
