<svg width="192" height="66" viewBox="0 0 192 66" fill="none" xmlns="http://www.w3.org/2000/svg">
<g id="experian_logo" opacity="0.9">
<path id="XMLID_3_" d="M31.9081 15.373H24.4981C22.2862 15.373 20.5166 13.6035 20.5166 11.3915V3.98151C20.5166 1.82486 22.2862 0 24.4981 0H31.9081C34.0648 0 35.8896 1.76956 35.8896 3.98151V11.3915C35.8896 13.6035 34.1201 15.373 31.9081 15.373Z" fill="#979797"/>
<path id="XMLID_4_" d="M12.7187 31.9628H4.4792C1.99075 31.9628 0 29.9167 0 27.4836V19.1335C0 16.7003 2.04605 14.6543 4.4792 14.6543H12.8293C15.3177 14.6543 17.3085 16.7003 17.3085 19.1335V27.4836C17.2532 29.972 15.2625 31.9628 12.7187 31.9628Z" fill="#979797"/>
<path id="XMLID_5_" d="M12.0012 49.2153H6.91374C5.42067 49.2153 4.2041 47.9987 4.2041 46.5056V41.4181C4.2041 39.9251 5.42067 38.7085 6.91374 38.7085H12.0012C13.4943 38.7085 14.7109 39.9251 14.7109 41.4181V46.5056C14.7109 47.9987 13.4943 49.2153 12.0012 49.2153Z" fill="#979797"/>
<path id="Combined Shape" fill-rule="evenodd" clip-rule="evenodd" d="M43.4642 18.4136H47.6116C48.8834 18.4136 49.9341 17.3629 49.8235 16.2016V12.0542C49.8235 10.8377 48.8281 9.84229 47.6116 9.84229H43.4642C42.2476 9.84229 41.2522 10.8377 41.2522 12.0542V16.2016C41.2522 17.4182 42.2476 18.4136 43.4642 18.4136ZM19.5751 65.2505H25.6027C27.4275 65.2505 28.8653 63.868 28.8653 61.9878V55.9603C28.8653 54.1354 27.3722 52.6977 25.6027 52.6977H19.5751C17.7503 52.6977 16.3125 54.1907 16.3125 55.9603V61.9878C16.3125 63.8127 17.8056 65.2505 19.5751 65.2505Z" fill="#979797"/>
<path id="Combined Shape_2" fill-rule="evenodd" clip-rule="evenodd" d="M138.802 21.181C140.129 21.181 141.179 20.075 141.179 18.8031C141.179 17.476 140.073 16.4253 138.802 16.4253C137.474 16.4253 136.368 17.5313 136.368 18.8031C136.368 20.075 137.419 21.181 138.802 21.181ZM51.2088 46.7838C50.877 47.3368 50.2687 47.6133 49.6051 47.6133C49.2733 47.6133 48.7756 47.558 48.4991 47.3368C47.9461 47.005 47.6144 46.3414 47.6144 45.6225C47.6144 45.2907 47.6697 44.959 47.8908 44.6825L53.4207 35.9453L47.8908 27.2081C47.6697 26.9316 47.6144 26.5445 47.6144 26.268C47.6144 25.6044 47.9461 24.9408 48.5544 24.5537C48.8862 24.3325 49.218 24.2772 49.5498 24.2772C50.2134 24.2772 50.8217 24.5537 51.2641 25.1067L55.7986 32.2955L60.3884 25.1067C60.7202 24.5537 61.3837 24.2772 62.1026 24.2772C62.4344 24.2772 62.7662 24.3325 63.098 24.5537C63.7063 24.8855 64.0381 25.5491 64.0381 26.268C64.0381 26.5998 63.9828 26.9316 63.7616 27.2081L58.2317 35.9453L63.7616 44.6825C63.9828 44.959 64.0381 45.2907 64.0381 45.6225C64.0381 46.2861 63.7063 47.0603 63.1533 47.3368C62.8215 47.558 62.4344 47.6133 62.0473 47.6133C61.3837 47.6133 60.8307 47.3368 60.4437 46.7838L55.8539 39.6503L51.2088 46.7838ZM71.0606 26.9321C73.1619 25.052 75.9821 23.8907 79.0789 23.8907C85.77 23.8907 91.0787 29.2547 91.0787 35.8905C91.0787 42.4711 85.7147 47.835 79.0789 47.835C76.0374 47.835 73.1619 46.6738 71.0606 44.7936V55.0239C71.0606 56.0193 70.1205 56.904 69.0698 56.904C68.1297 56.904 67.0791 56.0193 67.0791 55.0239V25.992C67.0791 24.9967 68.0191 24.1119 69.0698 24.1119C70.1758 24.1119 71.0606 24.9967 71.0606 25.992V26.9321ZM78.9686 27.8732C74.4895 27.8732 70.9503 31.4123 70.9503 35.8915C70.9503 40.3707 74.4895 43.9098 78.9686 43.9098C83.4478 43.9098 86.987 40.3707 86.987 35.8915C87.0423 31.4123 83.5031 27.8732 78.9686 27.8732ZM124.977 33.7348V45.7346C124.977 46.73 124.037 47.6148 122.986 47.6148C121.88 47.6148 120.995 46.73 120.995 45.7346V25.993C120.995 24.9976 121.936 24.1128 122.986 24.1128C123.926 24.1128 124.866 24.9423 124.977 25.9377C126.581 24.7211 128.682 23.9469 130.949 23.9469C132.166 23.9469 133.106 24.887 133.106 25.9377C133.106 27.0437 132.166 27.9837 130.949 27.9837C127.853 28.039 124.977 29.0897 124.977 33.7348ZM136.81 25.9915C136.81 24.9961 137.695 24.1114 138.801 24.1114C139.797 24.1114 140.737 24.9961 140.792 25.9915V45.7885C140.792 46.7838 139.741 47.6686 138.801 47.6686C137.751 47.6686 136.81 46.7838 136.81 45.7885V25.9915ZM165.953 24.1119C164.902 24.1119 163.962 24.9967 163.962 25.992V26.9321C161.75 25.052 158.985 23.8907 155.944 23.8907C149.308 23.8907 143.944 29.2547 143.944 35.8352C143.944 42.4711 149.253 47.835 155.944 47.835C159.041 47.835 161.806 46.6738 163.962 44.7936V45.789C163.962 46.7844 164.847 47.6691 165.953 47.6691C167.004 47.6691 167.944 46.7844 167.944 45.789V25.992C167.944 24.9967 166.893 24.1119 165.953 24.1119ZM164.017 35.8352C164.017 40.3144 160.478 43.8535 155.999 43.8535C151.52 43.8535 147.981 40.3697 147.981 35.8352C147.981 31.356 151.52 27.8169 155.999 27.8169C160.478 27.8169 164.017 31.356 164.017 35.8352ZM181.88 27.8179C185.198 27.8179 188.018 30.6381 188.018 33.956V45.7346C188.018 46.73 188.903 47.6148 190.009 47.6148C191.06 47.6148 192 46.73 192 45.7346V33.403C192 28.1496 187.189 23.9469 181.825 23.9469C179.558 23.9469 177.456 24.6658 175.742 25.9377C175.631 24.9423 174.691 24.1128 173.751 24.1128C172.701 24.1128 171.76 24.9976 171.76 25.993V45.7899C171.76 46.7853 172.645 47.6701 173.751 47.6701C174.802 47.6701 175.742 46.7853 175.742 45.7899V33.7901C175.742 29.0897 178.673 27.8179 181.88 27.8179ZM34.5079 24.0017C40.9778 24.0017 46.3971 29.1445 46.4524 35.2274C46.4524 36.2228 45.7888 37.0523 44.904 37.4393L44.6829 37.4946H44.6276H44.5723H44.517H26.6555C27.319 41.3103 30.5817 44.0199 34.5632 44.0199C36.6645 44.0199 38.6553 43.3563 39.9825 41.9185C40.3695 41.4209 40.9225 41.0891 41.5308 41.0891C42.5815 41.0891 43.5216 41.9738 43.5216 43.0798C43.5216 43.6328 43.2451 44.2411 42.858 44.5729C40.646 46.7295 37.7152 47.9461 34.5079 47.9461C27.872 47.9461 22.5081 42.6374 22.5081 35.9463C22.5081 29.3657 27.8167 24.0017 34.5079 24.0017ZM42.1392 33.4028C41.1438 30.1954 38.1577 27.8729 34.5633 27.8729C30.9135 27.8729 27.9274 30.1954 26.8767 33.4028H42.1392ZM117.732 35.2274C117.677 29.1445 112.202 24.0017 105.788 24.0017C99.0964 24.0017 93.7878 29.3657 93.7878 35.9463C93.7878 42.6374 99.1517 47.9461 105.788 47.9461C108.995 47.9461 111.926 46.7295 114.138 44.5729C114.525 44.2411 114.801 43.6328 114.801 43.0798C114.801 41.9738 113.861 41.0891 112.811 41.0891C112.202 41.0891 111.649 41.4209 111.262 41.9185C109.935 43.3563 107.944 44.0199 105.843 44.0199C101.861 44.0199 98.5987 41.3103 97.9352 37.4946H115.797H115.852H115.907H116.018H116.073C116.958 37.1076 117.732 36.2228 117.732 35.2274ZM105.788 27.8729C109.382 27.8729 112.369 30.1954 113.364 33.4028H98.1568C99.1522 30.1954 102.138 27.8729 105.788 27.8729Z" fill="#979797"/>
</g>
</svg>
