<svg width="64" height="22" viewBox="0 0 64 22" fill="none" xmlns="http://www.w3.org/2000/svg">
<g opacity="0.9">
<path d="M10.636 5.12435H8.16604C7.42872 5.12435 6.83887 4.5345 6.83887 3.79718V1.32717C6.83887 0.608286 7.42872 0 8.16604 0H10.636C11.3549 0 11.9632 0.589853 11.9632 1.32717V3.79718C11.9632 4.5345 11.3734 5.12435 10.636 5.12435Z" fill="#979797"/>
<path d="M4.23957 10.6543H1.49307C0.663585 10.6543 0 9.97225 0 9.1612V6.37783C0 5.56678 0.682018 4.88477 1.49307 4.88477H4.27644C5.10592 4.88477 5.7695 5.56678 5.7695 6.37783V9.1612C5.75107 9.99068 5.08748 10.6543 4.23957 10.6543Z" fill="#979797"/>
<path d="M4.00041 16.4051H2.30458C1.80689 16.4051 1.40137 15.9996 1.40137 15.5019V13.806C1.40137 13.3084 1.80689 12.9028 2.30458 12.9028H4.00041C4.4981 12.9028 4.90362 13.3084 4.90362 13.806V15.5019C4.90362 15.9996 4.4981 16.4051 4.00041 16.4051Z" fill="#979797"/>
<path fill-rule="evenodd" clip-rule="evenodd" d="M14.4881 6.13786H15.8705C16.2945 6.13786 16.6447 5.78764 16.6078 5.40055V4.01808C16.6078 3.61255 16.276 3.28076 15.8705 3.28076H14.4881C14.0825 3.28076 13.7507 3.61255 13.7507 4.01808V5.40055C13.7507 5.80607 14.0825 6.13786 14.4881 6.13786ZM6.52504 21.7502H8.53423C9.14251 21.7502 9.62177 21.2893 9.62177 20.6626V18.6534C9.62177 18.0451 9.12408 17.5659 8.53423 17.5659H6.52504C5.91676 17.5659 5.4375 18.0636 5.4375 18.6534V20.6626C5.4375 21.2709 5.93519 21.7502 6.52504 21.7502Z" fill="#979797"/>
<path fill-rule="evenodd" clip-rule="evenodd" d="M46.2672 7.06033C46.7096 7.06033 47.0598 6.69167 47.0598 6.26771C47.0598 5.82532 46.6911 5.4751 46.2672 5.4751C45.8248 5.4751 45.4561 5.84376 45.4561 6.26771C45.4561 6.69167 45.8063 7.06033 46.2672 7.06033ZM17.0696 15.5946C16.959 15.7789 16.7562 15.8711 16.535 15.8711C16.4244 15.8711 16.2585 15.8527 16.1664 15.7789C15.982 15.6683 15.8715 15.4471 15.8715 15.2075C15.8715 15.0969 15.8899 14.9863 15.9636 14.8942L17.8069 11.9818L15.9636 9.06935C15.8899 8.97719 15.8715 8.84816 15.8715 8.756C15.8715 8.5348 15.982 8.31361 16.1848 8.18457C16.2954 8.11084 16.406 8.09241 16.5166 8.09241C16.7378 8.09241 16.9406 8.18457 17.088 8.3689L18.5995 10.7652L20.1295 8.3689C20.2401 8.18457 20.4612 8.09241 20.7009 8.09241C20.8115 8.09241 20.9221 8.11084 21.0327 8.18457C21.2354 8.29517 21.346 8.51637 21.346 8.756C21.346 8.86659 21.3276 8.97719 21.2539 9.06935L19.4106 11.9818L21.2539 14.8942C21.3276 14.9863 21.346 15.0969 21.346 15.2075C21.346 15.4287 21.2354 15.6868 21.0511 15.7789C20.9405 15.8527 20.8115 15.8711 20.6824 15.8711C20.4612 15.8711 20.2769 15.7789 20.1479 15.5946L18.618 13.2168L17.0696 15.5946ZM23.6869 8.97737C24.3873 8.35066 25.3274 7.96356 26.3596 7.96356C28.59 7.96356 30.3596 9.75156 30.3596 11.9635C30.3596 14.157 28.5716 15.945 26.3596 15.945C25.3458 15.945 24.3873 15.5579 23.6869 14.9312V18.3413C23.6869 18.6731 23.3735 18.968 23.0233 18.968C22.7099 18.968 22.3597 18.6731 22.3597 18.3413V8.66401C22.3597 8.33222 22.673 8.0373 23.0233 8.0373C23.3919 8.0373 23.6869 8.33222 23.6869 8.66401V8.97737ZM26.3229 9.29105C24.8298 9.29105 23.6501 10.4708 23.6501 11.9638C23.6501 13.4569 24.8298 14.6366 26.3229 14.6366C27.8159 14.6366 28.9957 13.4569 28.9957 11.9638C29.0141 10.4708 27.8344 9.29105 26.3229 9.29105ZM41.659 11.2449V15.2449C41.659 15.5767 41.3456 15.8716 40.9954 15.8716C40.6268 15.8716 40.3318 15.5767 40.3318 15.2449V8.66433C40.3318 8.33254 40.6452 8.03761 40.9954 8.03761C41.3088 8.03761 41.6221 8.31411 41.659 8.6459C42.1936 8.24037 42.894 7.98231 43.6498 7.98231C44.0553 7.98231 44.3686 8.29567 44.3686 8.6459C44.3686 9.01456 44.0553 9.32792 43.6498 9.32792C42.6175 9.34635 41.659 9.69657 41.659 11.2449ZM45.6035 8.66384C45.6035 8.33205 45.8984 8.03712 46.2671 8.03712C46.5989 8.03712 46.9122 8.33205 46.9306 8.66384V15.2628C46.9306 15.5946 46.5804 15.8895 46.2671 15.8895C45.9168 15.8895 45.6035 15.5946 45.6035 15.2628V8.66384ZM55.3177 8.0373C54.9674 8.0373 54.6541 8.33222 54.6541 8.66401V8.97737C53.9168 8.35066 52.9951 7.96356 51.9813 7.96356C49.7694 7.96356 47.9814 9.75156 47.9814 11.9451C47.9814 14.157 49.7509 15.945 51.9813 15.945C53.0135 15.945 53.9352 15.5579 54.6541 14.9312V15.263C54.6541 15.5948 54.949 15.8897 55.3177 15.8897C55.6679 15.8897 55.9812 15.5948 55.9812 15.263V8.66401C55.9812 8.33222 55.631 8.0373 55.3177 8.0373ZM54.6725 11.9451C54.6725 13.4381 53.4928 14.6178 51.9997 14.6178C50.5066 14.6178 49.3269 13.4566 49.3269 11.9451C49.3269 10.452 50.5066 9.2723 51.9997 9.2723C53.4928 9.2723 54.6725 10.452 54.6725 11.9451ZM60.6267 9.27262C61.7327 9.27262 62.6728 10.2127 62.6728 11.3187V15.2449C62.6728 15.5767 62.9677 15.8716 63.3364 15.8716C63.6866 15.8716 63.9999 15.5767 63.9999 15.2449V11.1343C63.9999 9.38321 62.3963 7.98231 60.6083 7.98231C59.8525 7.98231 59.1521 8.22194 58.5807 8.6459C58.5438 8.31411 58.2304 8.03761 57.9171 8.03761C57.5669 8.03761 57.2535 8.33254 57.2535 8.66433V15.2633C57.2535 15.5951 57.5484 15.89 57.9171 15.89C58.2673 15.89 58.5807 15.5951 58.5807 15.2633V11.2634C58.5807 9.69657 59.5576 9.27262 60.6267 9.27262ZM11.5026 8.00058C13.6593 8.00058 15.4657 9.71484 15.4841 11.7425C15.4841 12.0743 15.2629 12.3508 14.968 12.4798L14.8943 12.4982H14.8759H14.8574H14.839H8.88515C9.10635 13.7701 10.1939 14.6733 11.5211 14.6733C12.2215 14.6733 12.8851 14.4521 13.3275 13.9728C13.4565 13.807 13.6408 13.6964 13.8436 13.6964C14.1938 13.6964 14.5072 13.9913 14.5072 14.3599C14.5072 14.5443 14.415 14.747 14.286 14.8576C13.5487 15.5765 12.5717 15.982 11.5026 15.982C9.29068 15.982 7.50269 14.2125 7.50269 11.9821C7.50269 9.78858 9.27225 8.00058 11.5026 8.00058ZM14.0464 11.1343C13.7146 10.0651 12.7192 9.29096 11.5211 9.29096C10.3045 9.29096 9.30914 10.0651 8.95891 11.1343H14.0464ZM39.244 11.7425C39.2256 9.71484 37.4007 8.00058 35.2625 8.00058C33.0321 8.00058 31.2626 9.78858 31.2626 11.9821C31.2626 14.2125 33.0506 15.982 35.2625 15.982C36.3316 15.982 37.3086 15.5765 38.0459 14.8576C38.1749 14.747 38.2671 14.5443 38.2671 14.3599C38.2671 13.9913 37.9537 13.6964 37.6035 13.6964C37.4007 13.6964 37.2164 13.807 37.0874 13.9728C36.645 14.4521 35.9814 14.6733 35.281 14.6733C33.9538 14.6733 32.8662 13.7701 32.6451 12.4982H38.5989H38.6173H38.6357H38.6726H38.691C38.986 12.3692 39.244 12.0743 39.244 11.7425ZM35.2627 9.29096C36.4608 9.29096 37.4562 10.0651 37.788 11.1343H32.7189C33.0507 10.0651 34.0461 9.29096 35.2627 9.29096Z" fill="#979797"/>
</g>
</svg>
