<svg width="69" height="19" viewBox="0 0 69 19" fill="none" xmlns="http://www.w3.org/2000/svg">
<path id="transunion" fill-rule="evenodd" clip-rule="evenodd" d="M62.9592 0.144531C60.7155 0.144531 58.7481 1.35263 57.7126 3.18204C57.3329 3.90689 57.2638 4.5282 57.5745 5.04596C57.9197 5.66727 58.7136 5.7363 59.1278 5.7363H59.8871L59.611 6.59923C59.4384 7.11698 59.5074 7.70377 59.7836 8.08346C60.0597 8.46315 60.4739 8.67025 60.9917 8.67025C61.3369 8.67025 61.7165 8.60122 62.0617 8.46315C61.9582 8.32508 61.8891 8.18701 61.8201 8.01443C61.8097 7.97291 61.7962 7.93138 61.7824 7.88892C61.7503 7.79019 61.7165 7.68639 61.7165 7.56571C61.5094 7.66926 61.2678 7.70378 61.0262 7.70378C60.8881 7.70378 60.681 7.66926 60.5775 7.49667C60.4739 7.3586 60.4394 7.1515 60.5084 6.90988L60.8881 5.7363H62.0962L62.4069 4.7353H61.2333L61.7511 3.113H60.7155L60.1978 4.7353H59.0932C58.7481 4.7353 58.541 4.63175 58.4374 4.45917C58.3339 4.25207 58.4374 3.83786 58.7136 3.35462V3.3201C59.6455 1.97394 61.1643 1.07649 62.9246 1.07649C65.7205 1.07649 67.9986 3.35462 67.9986 6.15051C67.9986 8.94639 65.7205 11.2245 62.9246 11.2245C60.4394 11.2245 58.3684 9.42963 57.9197 7.08247L56.9532 7.28957C57.5055 10.0855 59.9562 12.2255 62.9246 12.2255C66.2728 12.2255 68.9996 9.49866 68.9996 6.15051C69.0342 2.87138 66.3073 0.144531 62.9592 0.144531ZM0 9.60236V10.845H2.4162V18.0245H3.79688V10.845H6.2476V9.60236H0ZM45.3211 9.67143C45.114 9.67143 44.9414 9.74047 44.7688 9.87853C44.5962 10.0166 44.5272 10.1892 44.5272 10.4653C44.5272 10.7415 44.6308 10.914 44.7688 11.0521C44.9414 11.1902 45.114 11.2592 45.3211 11.2247C45.5282 11.2247 45.7008 11.1557 45.8389 11.0176C46.0114 10.8795 46.0805 10.7069 46.0805 10.4308C46.0805 10.1547 46.0114 9.98208 45.8389 9.84402C45.7008 9.70595 45.5282 9.67143 45.3211 9.67143ZM28.3733 14.9868C28.1662 14.8487 27.8901 14.7797 27.614 14.7107C27.3378 14.6416 27.0272 14.6071 26.7165 14.5726C26.2678 14.5036 25.9226 14.4345 25.681 14.3655C25.4394 14.262 25.3358 14.1239 25.3358 13.8823C25.3358 13.7442 25.3704 13.6406 25.4394 13.5371C25.5084 13.4335 25.5775 13.3645 25.7155 13.2955C25.8191 13.2264 25.9571 13.1574 26.0952 13.1229C26.2333 13.0884 26.4059 13.0539 26.5439 13.0539C26.682 13.0539 26.8546 13.0539 26.9927 13.0884C27.1652 13.1229 27.3033 13.1574 27.4069 13.2264C27.5449 13.2955 27.614 13.3645 27.7175 13.4681C27.7866 13.5716 27.8556 13.6752 27.8556 13.8132H28.9947C28.9947 13.5371 28.9601 13.261 28.8221 13.0539C28.684 12.8468 28.5114 12.6742 28.3043 12.5016C28.0627 12.3635 27.8211 12.2254 27.5104 12.1564C27.1998 12.0874 26.8891 12.0529 26.5439 12.0529C26.2333 12.0529 25.9226 12.0874 25.612 12.1564C25.3013 12.2254 25.0597 12.329 24.8181 12.5016C24.5765 12.6396 24.4039 12.8468 24.2658 13.0539C24.1277 13.261 24.0587 13.5371 24.0587 13.8477C24.0587 14.1929 24.1623 14.4345 24.3003 14.6416C24.4729 14.8487 24.6455 14.9868 24.8871 15.0904C25.1287 15.1939 25.4049 15.2629 25.7155 15.332C25.8708 15.3492 26.0174 15.3751 26.1641 15.401L26.1641 15.401L26.1641 15.401L26.1641 15.401L26.1642 15.401L26.1642 15.401L26.1642 15.401L26.1642 15.401L26.1642 15.401L26.1642 15.401C26.3109 15.4269 26.4576 15.4528 26.613 15.47C26.9927 15.5046 27.3033 15.6081 27.5449 15.7117C27.7866 15.8152 27.8901 15.9878 27.8901 16.2639C27.8901 16.4365 27.8556 16.5746 27.752 16.7127L27.752 16.7127C27.6485 16.8162 27.5449 16.9198 27.4414 16.9888C27.3033 17.0578 27.1652 17.0924 26.9927 17.1269C26.8201 17.1614 26.682 17.1614 26.5094 17.1614C26.4231 17.1614 26.3455 17.1528 26.2678 17.1441L26.2678 17.1441C26.1901 17.1355 26.1125 17.1269 26.0262 17.1269C25.8881 17.0924 25.75 17.0233 25.612 16.9543C25.5092 16.9029 25.4447 16.8324 25.3757 16.7569L25.3756 16.7569L25.3756 16.7569C25.352 16.731 25.3278 16.7046 25.3013 16.6781C25.2323 16.5746 25.1633 16.4365 25.1633 16.2985H23.8861C23.9206 16.6436 23.9897 16.9543 24.1623 17.1959C24.3348 17.4375 24.5074 17.6101 24.7836 17.7482C25.0252 17.8862 25.3013 17.9898 25.612 18.0588C25.9226 18.1279 26.2333 18.1624 26.5439 18.1624C26.8546 18.1624 27.1652 18.1279 27.4759 18.0588C27.7866 17.9898 28.0627 17.8862 28.2698 17.7137C28.4769 17.5411 28.684 17.3685 28.8221 17.1614C28.9601 16.9198 29.0292 16.6436 29.0292 16.333C29.0292 15.9878 28.9601 15.7117 28.8221 15.5046C28.753 15.2629 28.5804 15.1249 28.3733 14.9868ZM10.4936 12.5016C10.321 12.3635 10.1139 12.26 9.87225 12.1909C9.63063 12.1219 9.38901 12.0874 9.1819 12.0874C9.00932 12.0874 8.83673 12.1219 8.66415 12.1564C8.49156 12.1909 8.31898 12.26 8.18091 12.329C8.04284 12.398 7.90477 12.5016 7.7667 12.6397C7.62863 12.7777 7.5596 12.9158 7.49057 13.0539C7.49057 12.8123 7.42153 12.6397 7.28346 12.5016C7.17991 12.3635 7.00733 12.26 6.83474 12.1909C6.66216 12.1219 6.45505 12.0874 6.24795 12.0874C6.06718 12.0874 5.8864 12.1137 5.68267 12.1433L5.6826 12.1433L5.68259 12.1433L5.59213 12.1564V13.0539C5.73019 13.0539 5.86826 13.0539 5.9373 13.0884C6.04085 13.1229 6.07537 13.1574 6.10988 13.2265C6.1444 13.2955 6.17892 13.3645 6.17892 13.4681V13.8132V17.9898H7.49057V14.6417C7.49057 14.4 7.52508 14.1929 7.62863 14.0204C7.69767 13.8478 7.80122 13.7097 7.93929 13.6061C8.07736 13.5026 8.24994 13.399 8.42253 13.3645C8.47443 13.3541 8.52945 13.3406 8.58572 13.3268C8.71656 13.2947 8.85412 13.261 8.9748 13.261C9.31997 13.261 9.63063 13.33 9.90676 13.4681L10.4936 12.5016ZM16.0852 16.9198C16.1197 16.9888 16.1542 17.0579 16.2578 17.0924C16.3268 17.1269 16.4649 17.1269 16.6375 17.0924V18.0589C16.4304 18.1279 16.2233 18.1279 16.0162 18.1279C15.8091 18.1279 15.6365 18.0934 15.4639 17.9898C15.2913 17.9208 15.1878 17.7827 15.0842 17.6101C14.9806 17.4376 14.9461 17.1959 14.9461 16.8853C14.8081 17.2995 14.5319 17.6101 14.1522 17.8172C13.7725 18.0589 13.3583 18.1624 12.9441 18.1624C12.5299 18.1624 12.1502 18.0934 11.8051 17.9553C11.4599 17.8173 11.1838 17.6101 10.9767 17.334C10.7696 17.0579 10.597 16.7472 10.4934 16.402C10.3554 16.0569 10.3208 15.6772 10.3208 15.263C10.3208 14.7797 10.4244 14.331 10.597 13.9513C10.7696 13.5371 10.9767 13.2265 11.2873 12.9503C11.598 12.6742 11.9431 12.4671 12.3228 12.329C12.737 12.191 13.1512 12.1219 13.6345 12.1219C14.0487 12.1219 14.4629 12.1564 14.8426 12.26C15.2568 12.329 15.6365 12.4671 16.0162 12.6397V16.2985V16.6437C16.0162 16.7472 16.0507 16.8508 16.0852 16.9198ZM14.3252 16.4016C14.6013 16.0564 14.7394 15.6422 14.7394 15.0899V13.295C14.5323 13.226 14.3252 13.157 14.1181 13.1225C13.911 13.0879 13.7039 13.0879 13.5313 13.0879C13.2552 13.0879 12.979 13.1225 12.7719 13.226C12.5303 13.3296 12.3577 13.4676 12.1851 13.6402C12.0126 13.8128 11.909 14.0544 11.8055 14.296C11.7019 14.5722 11.6329 14.8483 11.6329 15.159C11.6329 15.7112 11.7364 16.1254 12.0126 16.4361C12.2887 16.7468 12.6684 16.9193 13.2207 16.9193C13.7039 16.9193 14.0836 16.7468 14.3252 16.4016ZM21.7805 12.2945C22.0911 12.4326 22.3327 12.6052 22.5053 12.8123C22.7124 13.0539 22.8505 13.2955 22.816 13.6407C22.9195 13.9513 22.954 14.2965 22.954 14.6417V18.0243H21.6424V14.6417C21.6424 14.1929 21.5388 13.8132 21.2627 13.5716C21.0211 13.33 20.6759 13.1919 20.2962 13.1919C20.0891 13.1919 19.882 13.2265 19.7094 13.2955C19.5368 13.3645 19.3988 13.4681 19.2607 13.6061C19.1226 13.7442 19.0191 13.8823 18.9501 14.0894C18.881 14.262 18.8465 14.4691 18.8465 14.7107V17.9898H17.5349V13.8823V13.4681C17.5349 13.3645 17.5003 13.2955 17.4658 13.2265C17.4313 13.1574 17.3968 13.1229 17.2932 13.0884C17.2242 13.0539 17.0861 13.0539 16.9481 13.0539V12.1564C17.1552 12.1219 17.3968 12.0874 17.6039 12.0874C17.811 12.0874 18.0181 12.1219 18.1907 12.1564C18.3633 12.2255 18.5013 12.329 18.6049 12.4671C18.7084 12.6052 18.7775 12.8123 18.7775 13.0884C18.8465 12.8813 18.9846 12.7432 19.1226 12.6052C19.2607 12.4671 19.4333 12.3635 19.6059 12.2945C19.7785 12.2255 19.9511 12.1564 20.1582 12.1219C20.3653 12.0874 20.5378 12.0874 20.7449 12.0874C21.1592 12.0874 21.5043 12.1564 21.7805 12.2945ZM42.2834 12.2945C42.5941 12.4326 42.8357 12.6052 43.0083 12.8123C43.2154 13.0539 43.3534 13.2955 43.3534 13.6407C43.457 13.9513 43.4915 14.2965 43.4915 14.6417V18.0243H42.1799V14.6417C42.1799 14.1929 42.0763 13.8132 41.8002 13.5716C41.5586 13.33 41.2134 13.1919 40.8337 13.1919C40.6266 13.1919 40.4195 13.2265 40.2469 13.2955C40.0743 13.3645 39.9363 13.4681 39.7982 13.6061C39.6601 13.7442 39.5566 13.8823 39.4875 14.0894C39.4185 14.262 39.384 14.4691 39.384 14.7107V17.9898H38.0723V13.8823V13.4681C38.0723 13.3645 38.0378 13.2955 38.0033 13.2265C37.9688 13.1574 37.9343 13.1229 37.8307 13.0884C37.7617 13.0539 37.6236 13.0539 37.4855 13.0539V12.1564C37.6581 12.1219 37.8997 12.0874 38.1068 12.0874C38.314 12.0874 38.5211 12.1219 38.6936 12.1564C38.8662 12.2255 39.0043 12.329 39.1078 12.4671C39.2114 12.6052 39.2804 12.8123 39.2804 13.0884C39.3495 12.8813 39.4875 12.7432 39.6256 12.6052C39.7637 12.4671 39.9363 12.3635 40.1088 12.2945C40.2814 12.2255 40.454 12.1564 40.6611 12.1219C40.8682 12.0874 41.0408 12.0874 41.2479 12.0874C41.6621 12.0874 42.0073 12.1564 42.2834 12.2945ZM45.9766 12.2255H44.665V18.0244H45.9766V12.2255ZM51.0852 12.2945C51.4649 12.4326 51.81 12.6052 52.0862 12.8468C52.3623 13.0884 52.6039 13.3991 52.742 13.7788C52.9146 14.1584 53.0181 14.5726 53.0181 15.0904C53.0181 15.5736 52.9146 16.0224 52.742 16.402C52.5694 16.8163 52.3278 17.1269 52.0517 17.3685C51.7755 17.6101 51.4649 17.8173 51.0852 17.9208C50.7055 18.0244 50.3258 18.0934 49.9461 18.0934C49.5319 18.0934 49.1867 18.0589 48.8071 17.9208C48.4619 17.8173 48.1167 17.6101 47.8406 17.3685C47.5644 17.0924 47.3228 16.7817 47.1502 16.402C46.9776 16.0569 46.8741 15.6082 46.8741 15.0904C46.8741 14.5726 46.9776 14.1584 47.1502 13.7788C47.3228 13.3991 47.5644 13.0884 47.8406 12.8468C48.1167 12.6052 48.4619 12.4326 48.8071 12.2945C49.1522 12.191 49.5319 12.1219 49.9116 12.1219C50.3258 12.1219 50.7055 12.1564 51.0852 12.2945ZM51.1892 16.5052C51.3273 16.3327 51.4653 16.1601 51.5689 15.9185C51.6724 15.6768 51.7415 15.4007 51.776 15.1591C51.776 14.8484 51.7069 14.5723 51.6034 14.3307C51.4998 14.0891 51.3618 13.882 51.1892 13.7439C51.0166 13.5713 50.8095 13.4677 50.6024 13.3987C50.3953 13.3297 50.1537 13.2952 49.9466 13.2952C49.7395 13.3297 49.5324 13.3642 49.3253 13.4332C49.1182 13.5023 48.9456 13.6403 48.773 13.7784C48.6004 13.9165 48.4968 14.0891 48.3933 14.3307C48.2897 14.5723 48.2552 14.8139 48.2552 15.1246C48.2552 15.4352 48.2897 15.7114 48.3933 15.953C48.4968 16.1946 48.6349 16.3672 48.8075 16.5398C48.9456 16.6778 49.1527 16.8159 49.3598 16.8849C49.5669 16.954 49.8085 16.9885 50.0156 16.9885C50.2227 16.9885 50.4298 16.9195 50.6369 16.8504C50.844 16.7814 51.0511 16.6778 51.1892 16.5052ZM30.0989 15.1941V9.60236H31.4796V15.1596C31.4796 16.2642 32.308 16.8855 33.378 16.8855C34.4481 16.8855 35.242 16.2642 35.242 15.1596V9.60236H36.6226V15.1941C36.6226 17.0581 35.1384 18.1281 33.378 18.1281C31.5831 18.1281 30.0989 17.0581 30.0989 15.1941ZM59.5418 15.7117V16.6436C59.5418 17.0924 59.6453 17.2649 60.1631 17.2304V18.0588C59.024 18.2659 58.1611 18.1279 58.1611 16.7127V16.5746V14.6071C58.1611 14.1584 58.0576 13.7787 57.7814 13.5371C57.5398 13.2955 57.1946 13.1574 56.8149 13.1574C56.6078 13.1574 56.4007 13.1919 56.2282 13.261C56.0556 13.33 55.9175 13.4335 55.7794 13.5716C55.6414 13.7097 55.5378 13.8477 55.4688 14.0548C55.3997 14.2274 55.3652 14.4345 55.3652 14.6762V17.9553H54.0536V13.8477V13.4335C54.0536 13.33 54.0191 13.261 53.9845 13.1919C53.95 13.1229 53.9155 13.0884 53.812 13.0539C53.7429 13.0193 53.6049 13.0193 53.4668 13.0193V12.1219C53.6394 12.0874 53.881 12.0529 54.0881 12.0529C54.2952 12.0529 54.5023 12.0874 54.6749 12.1219C54.8475 12.1909 54.9855 12.2945 55.0891 12.4325C55.1926 12.5706 55.2617 12.7777 55.2617 13.0539C55.3307 12.8468 55.4688 12.7087 55.6068 12.5706C55.7449 12.4325 55.9175 12.329 56.0901 12.26C56.2627 12.1909 56.4353 12.1219 56.6424 12.0874C56.8495 12.0529 57.022 12.0529 57.2291 12.0529C57.6434 12.0529 57.9885 12.1219 58.2647 12.26C58.5753 12.398 58.8169 12.5706 58.9895 12.7777C59.1621 13.0193 59.3002 13.261 59.4037 13.5716C59.5073 13.8823 59.5418 14.2274 59.5418 14.5726V15.7117ZM66.066 7.70399C66.2731 7.84206 66.5837 7.87657 66.8254 7.87657C66.9979 7.87657 67.136 7.87657 67.2396 7.80754C67.2223 7.8248 67.2137 7.85069 67.205 7.87657C67.1964 7.90246 67.1878 7.92835 67.1705 7.94561L67.067 8.15271L66.9634 8.35981L66.8599 8.56691C66.8426 8.58417 66.834 8.60143 66.8254 8.61868C66.8167 8.63595 66.8081 8.65321 66.7908 8.67047C66.7782 8.67047 66.7517 8.67509 66.7181 8.68095C66.6599 8.69111 66.5804 8.70498 66.5147 8.70498C66.2731 8.70498 66.066 8.70498 65.7208 8.60143C65.4792 8.49788 65.3066 8.35981 65.1685 8.15271C64.7543 8.49788 64.2366 8.70498 63.7533 8.70498C63.2356 8.70498 62.8559 8.49788 62.5798 8.15271C62.3036 7.77302 62.2346 7.25526 62.4072 6.77203L63.063 4.77003H64.0985L63.3391 7.08268C63.2356 7.3243 63.3046 7.46237 63.3736 7.56592C63.4427 7.70399 63.6153 7.7385 63.7533 7.7385C64.2366 7.7385 64.7888 7.3243 64.9614 6.80654L65.6173 4.80455H66.6528L65.8934 7.1172C65.8589 7.22075 65.8589 7.3243 65.8589 7.39333C65.8879 7.53827 65.9655 7.61017 66.0306 7.67038C66.043 7.68187 66.0549 7.69293 66.066 7.70399Z" fill="#979797"/>
</svg>
